<mxfile host="app.diagrams.net" agent="Mozilla/5.0 (Windows NT 10.0; Win64; x64) AppleWebKit/537.36 (KHTML, like Gecko) Chrome/133.0.0.0 Safari/537.36 Edg/133.0.0.0" version="26.0.16">
  <diagram name="第 1 页" id="0rwtk3sZ38PBotHtFgWU">
    <mxGraphModel dx="1224" dy="749" grid="0" gridSize="10" guides="1" tooltips="1" connect="1" arrows="1" fold="1" page="1" pageScale="1" pageWidth="827" pageHeight="1169" math="0" shadow="0">
      <root>
        <mxCell id="0" />
        <mxCell id="1" parent="0" />
        <mxCell id="hCVYzCDH_YrVJPUHvfAo-3" style="rounded=0;orthogonalLoop=1;jettySize=auto;html=1;entryX=0;entryY=0.5;entryDx=0;entryDy=0;" parent="1" source="hCVYzCDH_YrVJPUHvfAo-1" target="hCVYzCDH_YrVJPUHvfAo-2" edge="1">
          <mxGeometry relative="1" as="geometry" />
        </mxCell>
        <mxCell id="hCVYzCDH_YrVJPUHvfAo-6" style="edgeStyle=orthogonalEdgeStyle;rounded=0;orthogonalLoop=1;jettySize=auto;html=1;entryX=0.5;entryY=1;entryDx=0;entryDy=0;" parent="1" source="hCVYzCDH_YrVJPUHvfAo-1" target="hCVYzCDH_YrVJPUHvfAo-5" edge="1">
          <mxGeometry relative="1" as="geometry" />
        </mxCell>
        <mxCell id="hCVYzCDH_YrVJPUHvfAo-12" style="rounded=0;orthogonalLoop=1;jettySize=auto;html=1;" parent="1" source="hCVYzCDH_YrVJPUHvfAo-1" target="hCVYzCDH_YrVJPUHvfAo-11" edge="1">
          <mxGeometry relative="1" as="geometry" />
        </mxCell>
        <mxCell id="hCVYzCDH_YrVJPUHvfAo-1" value="中国" style="ellipse;whiteSpace=wrap;html=1;fontSize=19;" parent="1" vertex="1">
          <mxGeometry x="100" y="270" width="80" height="80" as="geometry" />
        </mxCell>
        <mxCell id="hCVYzCDH_YrVJPUHvfAo-9" style="rounded=0;orthogonalLoop=1;jettySize=auto;html=1;" parent="1" source="hCVYzCDH_YrVJPUHvfAo-2" target="hCVYzCDH_YrVJPUHvfAo-8" edge="1">
          <mxGeometry relative="1" as="geometry" />
        </mxCell>
        <mxCell id="hCVYzCDH_YrVJPUHvfAo-2" value="北京" style="ellipse;whiteSpace=wrap;html=1;fontSize=19;" parent="1" vertex="1">
          <mxGeometry x="290" y="235" width="80" height="80" as="geometry" />
        </mxCell>
        <mxCell id="hCVYzCDH_YrVJPUHvfAo-4" value="首都" style="text;html=1;align=center;verticalAlign=middle;resizable=0;points=[];autosize=1;strokeColor=none;fillColor=none;fontSize=17;" parent="1" vertex="1">
          <mxGeometry x="200" y="295" width="60" height="30" as="geometry" />
        </mxCell>
        <mxCell id="hCVYzCDH_YrVJPUHvfAo-5" value="国家" style="ellipse;whiteSpace=wrap;html=1;fontSize=19;" parent="1" vertex="1">
          <mxGeometry x="100" y="130" width="80" height="80" as="geometry" />
        </mxCell>
        <mxCell id="hCVYzCDH_YrVJPUHvfAo-7" value="是" style="text;html=1;align=center;verticalAlign=middle;resizable=0;points=[];autosize=1;strokeColor=none;fillColor=none;fontSize=17;" parent="1" vertex="1">
          <mxGeometry x="135" y="230" width="40" height="30" as="geometry" />
        </mxCell>
        <mxCell id="hCVYzCDH_YrVJPUHvfAo-8" value="2069万" style="ellipse;whiteSpace=wrap;html=1;fontSize=19;" parent="1" vertex="1">
          <mxGeometry x="250" y="370" width="80" height="80" as="geometry" />
        </mxCell>
        <mxCell id="hCVYzCDH_YrVJPUHvfAo-10" value="人口" style="text;html=1;align=center;verticalAlign=middle;resizable=0;points=[];autosize=1;strokeColor=none;fillColor=none;fontSize=17;" parent="1" vertex="1">
          <mxGeometry x="310" y="330" width="60" height="30" as="geometry" />
        </mxCell>
        <mxCell id="hCVYzCDH_YrVJPUHvfAo-11" value="963万平方公里" style="ellipse;whiteSpace=wrap;html=1;fontSize=19;" parent="1" vertex="1">
          <mxGeometry y="370" width="90" height="90" as="geometry" />
        </mxCell>
        <mxCell id="hCVYzCDH_YrVJPUHvfAo-14" value="面积" style="text;html=1;align=center;verticalAlign=middle;resizable=0;points=[];autosize=1;strokeColor=none;fillColor=none;fontSize=17;" parent="1" vertex="1">
          <mxGeometry x="90" y="360" width="60" height="30" as="geometry" />
        </mxCell>
        <mxCell id="hCVYzCDH_YrVJPUHvfAo-17" style="edgeStyle=orthogonalEdgeStyle;rounded=0;orthogonalLoop=1;jettySize=auto;html=1;entryX=1;entryY=0.5;entryDx=0;entryDy=0;" parent="1" source="hCVYzCDH_YrVJPUHvfAo-16" target="hCVYzCDH_YrVJPUHvfAo-5" edge="1">
          <mxGeometry relative="1" as="geometry" />
        </mxCell>
        <mxCell id="hCVYzCDH_YrVJPUHvfAo-16" value="美国" style="ellipse;whiteSpace=wrap;html=1;fontSize=19;" parent="1" vertex="1">
          <mxGeometry x="290" y="130" width="80" height="80" as="geometry" />
        </mxCell>
        <mxCell id="hCVYzCDH_YrVJPUHvfAo-18" value="是" style="text;html=1;align=center;verticalAlign=middle;resizable=0;points=[];autosize=1;strokeColor=none;fillColor=none;fontSize=17;" parent="1" vertex="1">
          <mxGeometry x="210" y="140" width="40" height="30" as="geometry" />
        </mxCell>
        <mxCell id="cRPdR89ZUdfvibDdmNBO-1" style="rounded=0;orthogonalLoop=1;jettySize=auto;html=1;entryX=0;entryY=0.5;entryDx=0;entryDy=0;" edge="1" parent="1" source="cRPdR89ZUdfvibDdmNBO-4" target="cRPdR89ZUdfvibDdmNBO-6">
          <mxGeometry relative="1" as="geometry" />
        </mxCell>
        <mxCell id="cRPdR89ZUdfvibDdmNBO-2" style="edgeStyle=orthogonalEdgeStyle;rounded=0;orthogonalLoop=1;jettySize=auto;html=1;entryX=0.5;entryY=1;entryDx=0;entryDy=0;" edge="1" parent="1" source="cRPdR89ZUdfvibDdmNBO-4" target="cRPdR89ZUdfvibDdmNBO-8">
          <mxGeometry relative="1" as="geometry" />
        </mxCell>
        <mxCell id="cRPdR89ZUdfvibDdmNBO-3" style="rounded=0;orthogonalLoop=1;jettySize=auto;html=1;" edge="1" parent="1" source="cRPdR89ZUdfvibDdmNBO-4" target="cRPdR89ZUdfvibDdmNBO-12">
          <mxGeometry relative="1" as="geometry" />
        </mxCell>
        <mxCell id="cRPdR89ZUdfvibDdmNBO-4" value="中国" style="ellipse;whiteSpace=wrap;html=1;fontSize=19;" vertex="1" parent="1">
          <mxGeometry x="681" y="280" width="80" height="80" as="geometry" />
        </mxCell>
        <mxCell id="cRPdR89ZUdfvibDdmNBO-5" style="rounded=0;orthogonalLoop=1;jettySize=auto;html=1;" edge="1" parent="1" source="cRPdR89ZUdfvibDdmNBO-6" target="cRPdR89ZUdfvibDdmNBO-10">
          <mxGeometry relative="1" as="geometry" />
        </mxCell>
        <mxCell id="cRPdR89ZUdfvibDdmNBO-6" value="北京" style="ellipse;whiteSpace=wrap;html=1;fontSize=19;" vertex="1" parent="1">
          <mxGeometry x="871" y="245" width="80" height="80" as="geometry" />
        </mxCell>
        <mxCell id="cRPdR89ZUdfvibDdmNBO-7" value="首都" style="text;html=1;align=center;verticalAlign=middle;resizable=0;points=[];autosize=1;strokeColor=none;fillColor=none;fontSize=17;" vertex="1" parent="1">
          <mxGeometry x="781" y="305" width="60" height="30" as="geometry" />
        </mxCell>
        <mxCell id="cRPdR89ZUdfvibDdmNBO-8" value="动物" style="ellipse;whiteSpace=wrap;html=1;fontSize=19;" vertex="1" parent="1">
          <mxGeometry x="681" y="140" width="80" height="80" as="geometry" />
        </mxCell>
        <mxCell id="cRPdR89ZUdfvibDdmNBO-9" value="是" style="text;html=1;align=center;verticalAlign=middle;resizable=0;points=[];autosize=1;strokeColor=none;fillColor=none;fontSize=17;" vertex="1" parent="1">
          <mxGeometry x="716" y="240" width="40" height="30" as="geometry" />
        </mxCell>
        <mxCell id="cRPdR89ZUdfvibDdmNBO-10" value="2069万" style="ellipse;whiteSpace=wrap;html=1;fontSize=19;" vertex="1" parent="1">
          <mxGeometry x="831" y="380" width="80" height="80" as="geometry" />
        </mxCell>
        <mxCell id="cRPdR89ZUdfvibDdmNBO-11" value="人口" style="text;html=1;align=center;verticalAlign=middle;resizable=0;points=[];autosize=1;strokeColor=none;fillColor=none;fontSize=17;" vertex="1" parent="1">
          <mxGeometry x="891" y="340" width="60" height="30" as="geometry" />
        </mxCell>
        <mxCell id="cRPdR89ZUdfvibDdmNBO-12" value="963万平方公里" style="ellipse;whiteSpace=wrap;html=1;fontSize=19;" vertex="1" parent="1">
          <mxGeometry x="581" y="380" width="90" height="90" as="geometry" />
        </mxCell>
        <mxCell id="cRPdR89ZUdfvibDdmNBO-13" value="面积" style="text;html=1;align=center;verticalAlign=middle;resizable=0;points=[];autosize=1;strokeColor=none;fillColor=none;fontSize=17;" vertex="1" parent="1">
          <mxGeometry x="671" y="370" width="60" height="30" as="geometry" />
        </mxCell>
        <mxCell id="cRPdR89ZUdfvibDdmNBO-14" style="edgeStyle=orthogonalEdgeStyle;rounded=0;orthogonalLoop=1;jettySize=auto;html=1;entryX=1;entryY=0.5;entryDx=0;entryDy=0;" edge="1" parent="1" source="cRPdR89ZUdfvibDdmNBO-15" target="cRPdR89ZUdfvibDdmNBO-8">
          <mxGeometry relative="1" as="geometry" />
        </mxCell>
        <mxCell id="cRPdR89ZUdfvibDdmNBO-15" value="美国" style="ellipse;whiteSpace=wrap;html=1;fontSize=19;" vertex="1" parent="1">
          <mxGeometry x="871" y="140" width="80" height="80" as="geometry" />
        </mxCell>
        <mxCell id="cRPdR89ZUdfvibDdmNBO-16" value="是" style="text;html=1;align=center;verticalAlign=middle;resizable=0;points=[];autosize=1;strokeColor=none;fillColor=none;fontSize=17;" vertex="1" parent="1">
          <mxGeometry x="791" y="150" width="40" height="30" as="geometry" />
        </mxCell>
        <mxCell id="cRPdR89ZUdfvibDdmNBO-32" style="rounded=0;orthogonalLoop=1;jettySize=auto;html=1;entryX=0;entryY=0.5;entryDx=0;entryDy=0;" edge="1" parent="1" source="cRPdR89ZUdfvibDdmNBO-22" target="cRPdR89ZUdfvibDdmNBO-31">
          <mxGeometry relative="1" as="geometry" />
        </mxCell>
        <mxCell id="cRPdR89ZUdfvibDdmNBO-34" style="rounded=0;orthogonalLoop=1;jettySize=auto;html=1;" edge="1" parent="1" source="cRPdR89ZUdfvibDdmNBO-22" target="cRPdR89ZUdfvibDdmNBO-28">
          <mxGeometry relative="1" as="geometry" />
        </mxCell>
        <mxCell id="cRPdR89ZUdfvibDdmNBO-22" value="人工智能" style="ellipse;whiteSpace=wrap;html=1;fontSize=19;" vertex="1" parent="1">
          <mxGeometry x="215" y="725" width="96" height="86" as="geometry" />
        </mxCell>
        <mxCell id="cRPdR89ZUdfvibDdmNBO-28" value="知识表示" style="ellipse;whiteSpace=wrap;html=1;fontSize=19;" vertex="1" parent="1">
          <mxGeometry x="306" y="844" width="96" height="86" as="geometry" />
        </mxCell>
        <mxCell id="cRPdR89ZUdfvibDdmNBO-30" value="知识图谱" style="ellipse;whiteSpace=wrap;html=1;fontSize=19;" vertex="1" parent="1">
          <mxGeometry x="386" y="951" width="96" height="86" as="geometry" />
        </mxCell>
        <mxCell id="cRPdR89ZUdfvibDdmNBO-43" style="rounded=0;orthogonalLoop=1;jettySize=auto;html=1;" edge="1" parent="1" source="cRPdR89ZUdfvibDdmNBO-31" target="cRPdR89ZUdfvibDdmNBO-41">
          <mxGeometry relative="1" as="geometry" />
        </mxCell>
        <mxCell id="cRPdR89ZUdfvibDdmNBO-31" value="图灵" style="ellipse;whiteSpace=wrap;html=1;fontSize=19;" vertex="1" parent="1">
          <mxGeometry x="452" y="725" width="96" height="86" as="geometry" />
        </mxCell>
        <mxCell id="cRPdR89ZUdfvibDdmNBO-35" style="rounded=0;orthogonalLoop=1;jettySize=auto;html=1;entryX=0.25;entryY=0.105;entryDx=0;entryDy=0;entryPerimeter=0;" edge="1" parent="1" source="cRPdR89ZUdfvibDdmNBO-28" target="cRPdR89ZUdfvibDdmNBO-30">
          <mxGeometry relative="1" as="geometry" />
        </mxCell>
        <mxCell id="cRPdR89ZUdfvibDdmNBO-36" value="研究领域" style="text;html=1;align=center;verticalAlign=middle;resizable=0;points=[];autosize=1;strokeColor=none;fillColor=none;fontSize=16;" vertex="1" parent="1">
          <mxGeometry x="301" y="801" width="82" height="31" as="geometry" />
        </mxCell>
        <mxCell id="cRPdR89ZUdfvibDdmNBO-39" style="rounded=0;orthogonalLoop=1;jettySize=auto;html=1;entryX=0;entryY=0.64;entryDx=0;entryDy=0;entryPerimeter=0;" edge="1" parent="1" source="cRPdR89ZUdfvibDdmNBO-38" target="cRPdR89ZUdfvibDdmNBO-28">
          <mxGeometry relative="1" as="geometry" />
        </mxCell>
        <mxCell id="cRPdR89ZUdfvibDdmNBO-38" value="谷歌" style="ellipse;whiteSpace=wrap;html=1;fontSize=19;" vertex="1" parent="1">
          <mxGeometry x="129" y="879" width="96" height="86" as="geometry" />
        </mxCell>
        <mxCell id="cRPdR89ZUdfvibDdmNBO-40" value="提出" style="text;html=1;align=center;verticalAlign=middle;resizable=0;points=[];autosize=1;strokeColor=none;fillColor=none;fontSize=16;" vertex="1" parent="1">
          <mxGeometry x="240" y="910" width="50" height="31" as="geometry" />
        </mxCell>
        <mxCell id="cRPdR89ZUdfvibDdmNBO-41" value="英国" style="ellipse;whiteSpace=wrap;html=1;fontSize=19;" vertex="1" parent="1">
          <mxGeometry x="452" y="865" width="96" height="86" as="geometry" />
        </mxCell>
        <mxCell id="cRPdR89ZUdfvibDdmNBO-42" value="之父是" style="text;html=1;align=center;verticalAlign=middle;resizable=0;points=[];autosize=1;strokeColor=none;fillColor=none;fontSize=16;" vertex="1" parent="1">
          <mxGeometry x="338" y="736" width="66" height="31" as="geometry" />
        </mxCell>
        <mxCell id="cRPdR89ZUdfvibDdmNBO-44" value="国籍" style="text;html=1;align=center;verticalAlign=middle;resizable=0;points=[];autosize=1;strokeColor=none;fillColor=none;fontSize=16;" vertex="1" parent="1">
          <mxGeometry x="496" y="819" width="50" height="31" as="geometry" />
        </mxCell>
        <mxCell id="cRPdR89ZUdfvibDdmNBO-45" style="rounded=0;orthogonalLoop=1;jettySize=auto;html=1;entryX=0.167;entryY=0.93;entryDx=0;entryDy=0;entryPerimeter=0;" edge="1" parent="1" source="cRPdR89ZUdfvibDdmNBO-38" target="cRPdR89ZUdfvibDdmNBO-22">
          <mxGeometry relative="1" as="geometry" />
        </mxCell>
        <mxCell id="cRPdR89ZUdfvibDdmNBO-46" value="研究" style="text;html=1;align=center;verticalAlign=middle;resizable=0;points=[];autosize=1;strokeColor=none;fillColor=none;fontSize=16;" vertex="1" parent="1">
          <mxGeometry x="169" y="819" width="50" height="31" as="geometry" />
        </mxCell>
      </root>
    </mxGraphModel>
  </diagram>
</mxfile>
